# xmcd
#
# Track frame offsets:
#	150
#	19410
#	39505
#	57417
#	78096
#	95491
#	110997
#	130312
#	146418
#	162103
#	182074
#	201070
#
# Disc length: 2859 seconds
#
# Revision: 0
# Processed by: cddbd v1.5.2PL0 Copyright (c) Steve Scherf et al.
# Submitted via: audiograbber 1.83.01
#
DISCID=a40b290c
DTITLE=Dion, Celine - D'eux
DYEAR=1995
DGENRE=Chanson
TTITLE0=Pour que tu m'aimes encore
TTITLE1=Le ballet
TTITLE2=Regarde moi
TTITLE3=Je sais pas
TTITLE4=La mémoire d'Abraham
TTITLE5=Cherche encore
TTITLE6=Destin
TTITLE7=Les derniers seront les premiers
TTITLE8=J'irai où tu iras
TTITLE9=J'attendais
TTITLE10=Prière Païenne
TTITLE11=Vole
EXTD=CD US 1995 (550 Music/Epic BK 67107) UPC 0074646710722
EXTT0=
EXTT1=
EXTT2=
EXTT3=
EXTT4=
EXTT5=
EXTT6=
EXTT7=
EXTT8=
EXTT9=
EXTT10=
EXTT11=
PLAYORDER=
